<svg xmlns="http://www.w3.org/2000/svg" viewBox="0 0 1000 500">
  <!-- Background -->
  <rect width="1000" height="500" fill="#111111"/>
  
  <!-- Simplified world map in green -->
  <path d="
    M200,100 Q300,80 400,100 L500,120 Q600,100 700,120 L800,100
    L800,200 Q700,180 600,200 L500,180 Q400,200 300,180 L200,200
    L200,100 Z
    M100,250 Q200,230 300,250 L400,230 Q500,250 600,230 L700,250
    L700,350 Q600,330 500,350 L400,330 Q300,350 200,330 L100,350
    L100,250 Z
  " fill="#2E7D32" fill-opacity="0.2"/>
  
  <!-- Tree pins -->
  <g transform="translate(300,150)">
    <circle cx="0" cy="0" r="8" fill="#A5D6A7"/>
    <path d="M0,-8 L0,8" stroke="#A5D6A7" stroke-width="2"/>
  </g>
  
  <g transform="translate(500,200)">
    <circle cx="0" cy="0" r="8" fill="#A5D6A7"/>
    <path d="M0,-8 L0,8" stroke="#A5D6A7" stroke-width="2"/>
  </g>
  
  <g transform="translate(700,300)">
    <circle cx="0" cy="0" r="8" fill="#A5D6A7"/>
    <path d="M0,-8 L0,8" stroke="#A5D6A7" stroke-width="2"/>
  </g>
  
  <!-- Grid lines -->
  <path d="M0,125 H1000 M0,250 H1000 M0,375 H1000" 
        stroke="#388E3C" stroke-width="1" stroke-opacity="0.1"/>
  <path d="M250,0 V500 M500,0 V500 M750,0 V500" 
        stroke="#388E3C" stroke-width="1" stroke-opacity="0.1"/>
  
  <!-- Glow effects -->
  <circle cx="300" cy="150" r="20" fill="#A5D6A7" fill-opacity="0.1"/>
  <circle cx="500" cy="200" r="20" fill="#A5D6A7" fill-opacity="0.1"/>
  <circle cx="700" cy="300" r="20" fill="#A5D6A7" fill-opacity="0.1"/>
</svg> 